<?xml version="1.0" ?><svg height="32px" width="32px" ><g id="background"><rect fill="none" height="32" width="32"/></g><g id="computer_x5F_cancel"><path d="M30.766,27.531C31.545,26.2,31.999,24.654,32,23c-0.001-3.121-1.589-5.868-4-7.482V2H4v18h10.522   c-0.226,0.638-0.387,1.306-0.464,2H4l-4,8h17.349c1.545,1.248,3.51,1.999,5.651,2c2.142-0.001,4.104-0.752,5.649-2H32   L30.766,27.531z M6,18V4h20v10.523C25.061,14.19,24.054,14,23,14c-3.122,0-5.869,1.588-7.483,4H6z M16.115,23   c0.009-3.801,3.084-6.876,6.885-6.885c3.799,0.009,6.874,3.084,6.883,6.885c-0.009,3.799-3.084,6.874-6.883,6.883   C19.199,29.874,16.124,26.799,16.115,23z"/><polygon points="19,25 21,27 23,25 25,27 27,25 25,23 27,21 25,19 23,21 21,19 19,21 21,23  "/></g></svg>